<?xml version="1.0" encoding="UTF-8"?>
<!DOCTYPE svg PUBLIC "-//W3C//DTD SVG 1.1//EN" "http://www.w3.org/Graphics/SVG/1.1/DTD/svg11.dtd">
<!-- Creator: CorelDRAW 2019 (64-Bit) -->
<svg xmlns="http://www.w3.org/2000/svg" xml:space="preserve" width="64.5293mm" height="116.527mm" version="1.1" style="shape-rendering:geometricPrecision; text-rendering:geometricPrecision; image-rendering:optimizeQuality; fill-rule:evenodd; clip-rule:evenodd"
viewBox="0 0 6452.92 11652.72"
 xmlns:xlink="http://www.w3.org/1999/xlink">
 <defs>
  <style type="text/css">
   <![CDATA[
    .fil0 {fill:black}
    .fil1 {fill:black;fill-rule:nonzero}
   ]]>
  </style>
 </defs>
 <g id="Layer_x0020_1">
  <metadata id="CorelCorpID_0Corel-Layer"/>
  <g id="_2420929473968">
   <path class="fil0" d="M608.98 6337.24c-176.3,-332.53 -222.97,-670.67 -166.32,-1040.18 63.22,-412.37 329.99,-940.83 543.05,-1297.85 72.87,-122.1 146.3,-243.3 220.27,-363.8l0 -785.04c-170.93,269.59 -359.48,574.78 -575.54,936.82 -238.74,400.03 -525.11,980.01 -596.73,1447.18 -68.64,447.75 -13.65,875.32 209.74,1296.67 83.42,157.33 191.34,307.08 317.12,455.3 180.24,200.77 352.96,350.76 508.36,383.89l953.18 0 0 -5013.91c97.96,-149 196.64,-297.99 296.01,-447.35 100.32,-150.81 200.2,-301.9 298.78,-453.85 194.08,-299.17 391.23,-596.13 586.84,-894.26 6.68,-10.18 14.36,-22.15 22.73,-35.16l244.59 -372.27c-101.59,-135.85 -149.81,-153.43 -244.6,-153.43 -126.58,0 -170.13,31.35 -368.64,333.89 -165.75,252.63 -340.47,514.5 -588.01,896.06 -222.99,343.72 -431.07,650.19 -661.43,999.2l0 4727.35 -471.52 0c-81.66,-44.96 -220.14,-192.77 -268.49,-246.5 -98.45,-116.65 -189.53,-240.99 -259.39,-372.76zm2314.27 1032.99l0 -5477.21c-63.75,97.09 -127.91,193.91 -192.24,290.62 -74.09,111.38 -147.77,223.02 -221.49,334.63l0 4851.96 413.73 0zm2125.59 909.97l-1105.44 0 0 -7417.46c-61.56,-93.73 -118.53,-180.13 -172.71,-262.25 -80.43,122.42 -160.53,245.04 -241.03,367.41l0 7312.3 -2125.42 0c-154.79,0 -198.1,-106.31 -198.1,-236.42l-0.01 -92.03 -408.52 0c8.28,195.94 29.76,322.11 85.48,431.08 126.24,246.89 307.26,311.71 521.15,311.09l3644.59 0c213.89,0.62 394.91,-64.2 521.15,-311.09 90.67,-177.33 90.69,-400.2 90.69,-895.18 0,-183.1 -5.99,-241.09 45.33,-295.01 206.48,-216.91 381.27,-431.12 503.46,-661.6 223.39,-421.35 278.38,-848.92 209.74,-1296.67 -71.62,-467.17 -357.99,-1047.15 -596.73,-1447.18 -608.33,-1019.33 -998.53,-1588.03 -1391.66,-2180.3l0 5763.33 413.73 0 0 -4376.44c211.61,330.98 419.33,664.74 622.66,1005.43 213.06,357.02 479.83,885.48 543.05,1297.85 56.65,369.51 9.98,707.65 -166.32,1040.18 -110.87,209.11 -275.16,399.5 -437.59,570.15 -167.73,176.21 -161.51,359.85 -159.38,584.18l-0.03 552.21c0,130.11 -43.31,236.42 -198.1,236.42z"/>
   <g>
    <path class="fil0" d="M1190.79 9441.2c-42.1,102.54 -62.21,221.58 -60.75,356.78 0.88,231.5 -2.85,434.13 2.63,665.57 2.66,112.08 33.05,209.14 68.4,250.9l-460.66 0c57.08,-95.38 71.73,-175.52 78.6,-297.81 4.2,-74.99 6.36,-161.14 6.75,-250.3l-449.99 53.78 0 0c0.87,69.86 2.87,136.76 6.29,196.52 6.87,122.29 21.53,202.43 78.61,297.81l-460.67 0c35.35,-41.76 65.74,-138.82 68.4,-250.9 5.49,-231.44 1.75,-434.07 2.63,-665.57 1.46,-135.2 -18.65,-254.24 -60.75,-356.78l454.2 0c-37.16,40.79 -65.69,123.93 -74.06,235.91 -6.96,93.13 -11.85,208.35 -13.98,326.88l447.04 -53.43c-2.49,-99.4 -6.87,-194.39 -12.83,-273.45 -8.36,-111.98 -36.89,-195.12 -74.06,-235.91l454.2 0z"/>
    <path class="fil0" d="M1855.39 10263.78l158.87 -404.46 149.04 374.52 -307.91 29.94zm385.2 164.29l55.99 140.69c18.31,45.99 -0.88,76.07 -28.94,145.68l484.06 0c-36.75,-25.55 -107.63,-124.18 -147.33,-224.6l-414.58 -1048.65 -416.71 0c17.53,52.28 32.33,90.26 18.85,124.89l-373.84 960.67c-10.7,27.51 -72.06,115.45 -123.8,187.69l472.8 0c-29.35,-73.59 -49.15,-100.69 -30.81,-147.41l36.73 -93.5 467.58 -45.46z"/>
    <path class="fil0" d="M4462.07 10263.78l158.86 -404.46 149.04 374.52 -307.9 29.94zm385.19 164.29l56 140.69c18.3,45.99 -0.89,76.07 -28.94,145.68l484.05 0c-36.75,-25.55 -107.63,-124.18 -147.32,-224.6l-414.59 -1048.65 -416.71 0c17.54,52.28 32.33,90.26 18.85,124.89l-373.84 960.67c-10.7,27.51 -72.05,115.45 -123.8,187.69l472.8 0c-29.35,-73.59 -49.15,-100.69 -30.8,-147.41l36.72 -93.5 467.58 -45.46z"/>
    <path class="fil0" d="M3278.98 9441.2l-444.12 0c30.97,81.35 65.96,173.09 65.96,298.26l0 714.55c0,64.49 -6.35,95.89 -21.99,140.71l-41.77 119.73 814.64 0c45.51,0 91.19,11.82 115.38,23.18 26.38,-128.98 52.77,-257.97 79.15,-386.96 -116.34,69.53 -138.16,96.74 -213.56,96.74l-419.64 0 0 -707.95c0,-125.17 34.98,-216.91 65.95,-298.26z"/>
    <path class="fil0" d="M5885.67 9441.2l-444.12 0c30.97,81.35 65.95,173.09 65.95,298.26l0 714.55c0,64.49 -6.34,95.89 -21.98,140.71l-41.77 119.73 814.63 0c45.52,0 91.19,11.82 115.38,23.18 26.39,-128.98 52.77,-257.97 79.16,-386.96 -116.35,69.53 -138.17,96.74 -213.56,96.74l-419.65 0 0 -707.95c0,-125.17 34.99,-216.91 65.96,-298.26z"/>
   </g>
   <path class="fil1" d="M3.72 11644.12l110.42 0 0 -501.93 -110.42 0 0 501.93zm867.62 0l93.93 0 0 -501.93 -108.99 0 0 309.04 -235.19 -309.04 -101.82 0 0 501.93 108.99 0 0 -319.09 243.08 319.09zm956.53 -250.96l0 -1.44c0,-141.26 -108.99,-249.53 -266.74,-249.53l-195.75 0 0 501.93 195.75 0c157.75,0 266.74,-109.71 266.74,-250.96zm-115.44 0l0 1.43c0,88.91 -60.95,149.86 -151.3,149.86l-85.33 0 0 -302.59 85.33 0c90.35,0 151.3,62.38 151.3,151.3zm1004.57 0l0 -1.44c0,-142.69 -111.14,-258.14 -266.02,-258.14 -154.88,0 -267.46,116.88 -267.46,259.58l0 1.43c0,142.69 111.15,258.13 266.03,258.13 154.88,0 267.45,-116.88 267.45,-259.56zm-115.44 0l0 1.43c0,86.04 -61.67,156.31 -150.58,156.31 -88.91,0 -152.01,-71.7 -152.01,-157.74l0 -1.44c0,-86.05 61.66,-156.31 150.58,-156.31 88.91,0 152.01,71.7 152.01,157.75zm845.39 250.96l93.93 0 0 -501.93 -108.99 0 0 309.04 -235.18 -309.04 -101.83 0 0 501.93 108.99 0 0 -319.09 243.08 319.09zm494.04 0l382.19 0 0 -98.24 -272.48 0 0 -105.41 236.62 0 0 -98.23 -236.62 0 0 -101.81 268.89 0 0 -98.24 -378.6 0 0 501.93zm1122.89 -148.43l0 -1.44c0,-87.47 -57.36,-124.04 -159.19,-150.57 -86.76,-22.23 -108.26,-32.99 -108.26,-65.97l0 -1.44c0,-24.38 22.22,-43.74 64.53,-43.74 42.3,0 86.04,18.65 130.5,49.48l57.36 -83.17c-50.91,-40.88 -113.29,-63.82 -186.43,-63.82 -102.53,0 -175.67,60.23 -175.67,151.29l0 1.44c0,99.67 65.25,127.63 166.35,153.45 83.9,21.51 101.11,35.85 101.11,63.81l0 1.43c0,29.4 -27.25,47.33 -72.43,47.33 -57.36,0 -104.69,-23.66 -149.86,-60.95l-65.25 78.16c60.23,53.78 136.96,80.31 212.96,80.31 108.27,0 184.28,-55.93 184.28,-155.6zm380.76 148.43l110.42 0 0 -501.93 -110.42 0 0 501.93zm889.13 0l115.44 0 -215.11 -505.52 -101.82 0 -215.11 505.52 112.57 0 45.89 -112.58 212.25 0 45.89 112.58zm-152.02 -372.86l66.69 162.76 -133.37 0 66.68 -162.76z"/>
  </g>
 </g>
</svg>
